<svg xmlns="http://www.w3.org/2000/svg" version="1.1" xmlns:xlink="http://www.w3.org/1999/xlink"
    xmlns:svgjs="http://svgjs.dev/svgjs" width="96" height="97" viewBox="0 0 97 96">
    <g transform="matrix(1,0,0,1,-0.49999999999994316,-0.49999999999994316)">
        <svg viewBox="0 0 280 280" data-background-color="#ffffff"
            preserveAspectRatio="xMidYMid meet" height="96" width="97"
            xmlns="http://www.w3.org/2000/svg" xmlns:xlink="http://www.w3.org/1999/xlink">
            <g id="tight-bounds"
                transform="matrix(1,0,0,1,0.13999999999998636,0.13999999999998636)">
                <svg viewBox="0 0 279.72 279.72" height="279.72" width="279.72">
                    <g>
                        <svg viewBox="0 0 279.72 279.72" height="279.72" width="279.72">
                            <g>
                                <svg viewBox="0 0 279.72 279.72" height="279.72" width="279.72">
                                    <g id="textblocktransform">
                                        <svg viewBox="0 0 279.72 279.72" height="279.72"
                                            width="279.72" id="textblock">
                                            <g>
                                                <svg viewBox="0 0 279.72 279.72" height="279.72"
                                                    width="279.72">
                                                    <g transform="matrix(1,0,0,1,57.446704652707865,57.446704652707865)">
                                                        <svg
                                                            viewBox="0 0 164.8265906945843 164.8265906945843"
                                                            height="164.8265906945843"
                                                            width="164.8265906945843">
                                                            <g>
                                                                <circle r="82"
                                                                    cx="82.41329534729215"
                                                                    cy="82.41329534729215"
                                                                    fill="#755bb4"
                                                                    data-fill-palette-color="accent"></circle>
                                                                <svg
                                                                    xmlns="http://www.w3.org/2000/svg"
                                                                    xmlns:xlink="http://www.w3.org/1999/xlink"
                                                                    version="1.1"
                                                                    x="24.72398860418764"
                                                                    y="24.723988604187646"
                                                                    viewBox="5.412825107574463 5.195577621459961 79.76930236816406 79.77027130126953"
                                                                    enable-background="new 0 0 90 90"
                                                                    xml:space="preserve"
                                                                    height="115.378613486209"
                                                                    width="115.378613486209"
                                                                    class="icon-o-0"
                                                                    data-fill-palette-color="quaternary"
                                                                    id="o-0"><path d="M54.624 83.27c-10.792 1.801-22.246-1.411-30.727-8.272-8.062-6.522-13.088-16.744-12.728-27.17 0.349-10.096 5.499-20.182 14.078-25.707 8.769-5.647 20.783-5.62 29.498 0.129 8.154 5.379 12.661 15.857 9.907 25.391-1.424 4.931-4.572 9.475-9.052 12.082-4.663 2.714-10.561 3.268-15.615 1.341-4.544-1.733-8.418-5.448-9.851-10.154-1.47-4.826-0.243-10.416 3.327-14.027 3.452-3.492 8.998-4.743 13.484-2.567 4.259 2.065 6.884 7.148 5.307 11.755-0.85 2.483-2.859 4.611-5.423 5.317-2.69 0.741-5.774-0.221-7.439-2.493-1.629-2.222-1.495-5.503 0.597-7.389 1.054-0.95 2.599-1.429 3.984-1.015 0.41 0.122 2.233 0.566 2.058 1.209 0.087-0.652-1.341-0.82-1.755-0.934-1.29-0.356-2.733 0.004-3.719 0.904-1.739 1.586-1.995 4.459-0.597 6.34 1.417 1.906 4.102 2.721 6.348 1.971 2.287-0.765 3.875-3.013 4.245-5.344 0.746-4.703-3.812-8.759-8.323-8.569-4.774 0.201-8.548 4.373-9.111 8.971-1.056 8.621 8.8 14.488 16.466 12.536 8.546-2.177 12.86-12.372 10.766-20.465-2.34-9.045-11.891-14.664-20.877-14.543-9.785 0.131-18.28 7.23-21.955 16.011-4.038 9.649-2.194 21.17 4.201 29.364 6.485 8.309 16.93 13.113 27.352 13.664 5.766 0.305 11.749-0.537 17.004-3.006 4.955-2.328 8.907-6.258 11.976-10.734 6.303-9.194 8.662-20.938 6.135-31.824C79.845 17.355 61.052 3.689 41.936 5.329 23.164 6.939 7.154 22.991 5.551 41.756c-0.918 10.74 2.777 21.76 9.928 29.817 7.078 7.976 17.424 12.875 28.071 13.353 6.118 0.275 12.303-0.876 17.903-3.359-2.472 0.844-4.993 1.695-7.622 1.838 0.506-0.028 0.982-0.246 1.492-0.242-1.79-0.014-3.465 0.776-5.242 0.87 1.034-0.055 2.103-0.271 3.095-0.566 0.337-0.101 1.458-0.578 1.755-0.242-0.207-0.235-1.358 0.182-1.613 0.243-0.926 0.221-1.953 0.452-2.902 0.51 0.426-0.026 4.536-0.711 4.53-0.755 0.008 0.065-4.022 0.607-4.613 0.769 0.714-0.196 1.505-0.245 2.235-0.367 0.292-0.048 2.164-0.591 2.374-0.402C54.91 83.194 54.661 83.264 54.624 83.27 43.928 85.055 57.114 82.88 54.624 83.27z" fill="#ffffff" data-fill-palette-color="quaternary"></path></svg>
                                                            </g>
                                                        </svg>
                                                    </g>
                                                    <g>
                                                        <path
                                                            d="M22.068 101.925v0l-1.309 3.819 9.495 3.254-1.401 4.086-26.77-9.173 2.627-7.666c1.052-3.069 2.701-5.228 4.947-6.476 2.244-1.242 4.638-1.426 7.184-0.554 2.54 0.87 4.292 2.487 5.258 4.849 0.968 2.357 0.958 4.977-0.031 7.861zM8.033 97.565v0l-1.171 3.417 10.519 3.604 1.2-3.503c0.663-1.933 0.692-3.57 0.089-4.91-0.601-1.347-1.683-2.288-3.246-2.824v0c-1.646-0.564-3.122-0.492-4.426 0.216-1.305 0.708-2.293 2.041-2.965 4z"
                                                            fill="#755bb4"
                                                            data-fill-palette-color="primary"></path>
                                                        <path
                                                            d="M21.517 62.507l23.895 15.161-2.293 3.613-23.894-15.16z"
                                                            fill="#755bb4"
                                                            data-fill-palette-color="primary"></path>
                                                        <path
                                                            d="M72.032 47.191l0.226 0.191c-0.639 2.936-2.322 5.626-5.049 8.07v0c-3.295 2.953-6.819 4.362-10.57 4.229-3.747-0.138-7.115-1.875-10.104-5.211v0c-2.894-3.23-4.227-6.763-3.997-10.601 0.229-3.828 1.908-7.144 5.037-9.948v0c2.436-2.183 4.899-3.543 7.389-4.08v0l2.971 3.315c-2.802 0.482-5.307 1.713-7.518 3.694v0c-2.25 2.017-3.425 4.364-3.524 7.043-0.099 2.679 0.907 5.196 3.018 7.552v0c2.17 2.421 4.563 3.718 7.181 3.89 2.618 0.172 5.125-0.815 7.52-2.962v0c1.251-1.121 2.232-2.416 2.943-3.887v0l-5.206-5.81-4.279 3.836-2.499-2.788 7.437-6.664 9.055 10.104z"
                                                            fill="#755bb4"
                                                            data-fill-palette-color="primary"></path>
                                                        <path
                                                            d="M101.675 30.867l1.49 3.29-14.874 6.739-11.677-25.777 14.69-6.655 1.49 3.29-10.755 4.872 3.603 7.954 9.53-4.317 1.49 3.29-9.529 4.317 3.603 7.953z"
                                                            fill="#755bb4"
                                                            data-fill-palette-color="primary"></path>
                                                        <path
                                                            d="M122.251 19.175l0.129 11.12-4.264 0.372-0.295-28.38 5.11-0.446 4.658 9.962c0.825 1.695 1.656 3.498 2.494 5.409 0.843 1.903 1.48 3.385 1.911 4.443v0l0.687 1.586c0.952-3.902 2.017-7.956 3.193-12.162v0l3.032-10.634 5.1-0.445 5.063 27.964-4.274 0.373-1.962-10.959-1.863-11.212c-0.947 3.651-1.986 7.533-3.116 11.647v0l-3.014 10.845-3.386 0.296-4.727-10.17-4.782-10.794c0.107 1.23 0.21 4.958 0.306 11.185z"
                                                            fill="#755bb4"
                                                            data-fill-palette-color="primary"></path>
                                                        <path
                                                            d="M183.144 27.591v0c-0.631 2.414-1.982 4.086-4.052 5.016-2.065 0.938-4.451 1.053-7.16 0.344v0c-3.008-0.787-5.349-2.019-7.022-3.698v0l1.137-4.346c1.724 2.152 3.995 3.597 6.814 4.334v0c1.488 0.389 2.755 0.355 3.802-0.103 1.049-0.465 1.733-1.307 2.052-2.528v0c0.191-0.731 0.108-1.467-0.248-2.209-0.355-0.748-0.789-1.357-1.301-1.825-0.52-0.464-1.303-1.122-2.349-1.974v0c-0.619-0.511-1.055-0.872-1.306-1.084-0.245-0.21-0.647-0.577-1.208-1.1-0.56-0.523-0.962-0.945-1.206-1.267-0.25-0.323-0.55-0.764-0.898-1.323-0.344-0.55-0.561-1.067-0.651-1.55-0.088-0.49-0.144-1.049-0.168-1.676-0.024-0.627 0.052-1.28 0.23-1.958v0c0.609-2.33 1.936-3.949 3.979-4.857 2.045-0.915 4.409-1.022 7.09-0.321v0c2.467 0.645 4.454 1.629 5.963 2.95v0l-1.083 4.141c-1.517-1.61-3.427-2.716-5.731-3.319v0c-1.488-0.389-2.746-0.363-3.775 0.08-1.027 0.435-1.682 1.195-1.965 2.278-0.283 1.083-0.089 2.061 0.581 2.934 0.666 0.864 1.767 1.905 3.304 3.122v0c1.009 0.78 1.787 1.43 2.335 1.95 0.541 0.518 1.142 1.205 1.803 2.061 0.663 0.85 1.075 1.766 1.237 2.749 0.161 0.983 0.093 2.043-0.204 3.179z"
                                                            fill="#755bb4"
                                                            data-fill-palette-color="primary"></path>
                                                        <path
                                                            d="M228.693 29.168l-14.883 24.068-3.675-2.273 6.514-10.532-10.825-6.694-6.514 10.532-3.674-2.272 14.884-24.068 3.674 2.272-6.402 10.352 10.825 6.694 6.402-10.352z"
                                                            fill="#755bb4"
                                                            data-fill-palette-color="primary"></path>
                                                        <path
                                                            d="M261.171 63.449l-13.472 11.111c-2.831 2.335-5.585 3.373-8.263 3.116-2.678-0.257-5.085-1.681-7.222-4.272v0c-2.103-2.55-3.041-5.151-2.815-7.803 0.226-2.652 1.7-5.1 4.421-7.344v0l13.729-11.323 2.749 3.332-13.698 11.298c-1.858 1.532-2.844 3.098-2.959 4.696-0.111 1.604 0.439 3.14 1.648 4.607v0c2.725 3.304 5.922 3.444 9.591 0.418v0l13.542-11.168z"
                                                            fill="#755bb4"
                                                            data-fill-palette-color="primary"></path>
                                                        <path
                                                            d="M250.851 106.529v0l-3.947-10.135 26.37-10.269 3.366 8.645c1.077 2.765 1.281 5.194 0.612 7.286-0.676 2.094-2.069 3.553-4.181 4.375v0c-1.458 0.568-2.896 0.657-4.314 0.269-1.414-0.397-2.527-1.173-3.338-2.326v0c0.3 1.533 0.106 2.995-0.584 4.385-0.687 1.397-1.932 2.446-3.735 3.149v0c-2.087 0.813-4.063 0.764-5.93-0.145-1.873-0.906-3.313-2.651-4.319-5.234zM273.191 95.755v0l-1.678-4.308-8.098 3.153 1.417 3.639c0.764 1.961 1.729 3.261 2.897 3.899 1.17 0.645 2.393 0.718 3.67 0.222v0c1.119-0.436 1.865-1.215 2.238-2.338 0.374-1.123 0.225-2.545-0.446-4.267zM261.996 100.658v0l-1.862-4.78-8.334 3.246 2.012 5.166c1.29 3.312 3.305 4.435 6.045 3.368v0c1.326-0.516 2.185-1.368 2.577-2.556 0.398-1.19 0.252-2.671-0.438-4.444z"
                                                            fill="#755bb4"
                                                            data-fill-palette-color="primary"></path>
                                                        <path
                                                            d="M14.075 187.037v0l-1.529-4.801 15.252-4.855 1.513 4.752c0.722 2.269 0.613 4.349-0.328 6.242-0.941 1.892-2.497 3.184-4.669 3.875v0c-2.269 0.722-4.349 0.634-6.242-0.263-1.901-0.902-3.233-2.552-3.997-4.95zM27.313 182.727v0l-0.743-2.333-11.299 3.597 0.764 2.401c0.552 1.735 1.516 2.883 2.891 3.443 1.373 0.554 2.914 0.559 4.624 0.015v0c1.568-0.499 2.717-1.403 3.447-2.712 0.728-1.315 0.833-2.785 0.316-4.411z"
                                                            fill="#755bb4"
                                                            data-fill-palette-color="primary"></path>
                                                        <path
                                                            d="M34.32 195.579l-14.709 6.311-0.958-2.231 14.709-6.311z"
                                                            fill="#755bb4"
                                                            data-fill-palette-color="primary"></path>
                                                        <path
                                                            d="M30.178 207.363v0l-0.834 0.17 2.528 4.464 0.58-0.619c1.327-1.449 2.431-2.64 3.313-3.574 0.882-0.934 1.435-1.51 1.659-1.73v0l0.328-0.325c-0.732 0.213-3.256 0.751-7.574 1.614zM27.237 207.959l-4.035 0.82-1.277-2.253 16.655-3.072 1.58 2.791-11.235 12.641-1.291-2.28 2.789-3.021z"
                                                            fill="#755bb4"
                                                            data-fill-palette-color="primary"></path>
                                                        <path
                                                            d="M38.565 221.372l-5.226 3.502-1.5-1.909 13.347-8.92 1.794 2.283-3.271 5.286c-0.551 0.914-1.149 1.868-1.791 2.862-0.642 0.985-1.148 1.743-1.519 2.275v0l-0.53 0.815c2.142-0.757 4.391-1.508 6.748-2.253v0l5.971-1.85 1.788 2.275-11.671 11.052-1.501-1.909 4.582-4.322 4.731-4.361c-2.018 0.685-4.178 1.397-6.482 2.134v0l-6.06 1.932-1.188-1.511 3.347-5.385 3.626-5.603c-0.546 0.429-2.278 1.632-5.195 3.607z"
                                                            fill="#755bb4"
                                                            data-fill-palette-color="primary"></path>
                                                        <path
                                                            d="M65.482 238.795c-0.037 1.993-0.899 3.913-2.585 5.762-1.686 1.849-3.524 2.884-5.514 3.105-1.99 0.221-3.815-0.426-5.475-1.94v0c-1.65-1.504-2.464-3.264-2.442-5.28 0.027-2.011 0.883-3.941 2.569-5.79v0c1.677-1.839 3.513-2.867 5.509-3.083 1.995-0.216 3.818 0.428 5.467 1.933v0c1.69 1.541 2.513 3.305 2.471 5.293zM57.807 234.014c-1.341 0.219-2.632 1.009-3.873 2.369-1.236 1.356-1.896 2.725-1.981 4.109-0.08 1.379 0.419 2.559 1.496 3.541v0c1.111 1.014 2.333 1.411 3.664 1.192 1.337-0.214 2.634-1.012 3.893-2.392v0c1.25-1.371 1.918-2.733 2.003-4.089 0.09-1.36-0.42-2.547-1.532-3.56v0c-1.096-1-2.32-1.39-3.67-1.17z"
                                                            fill="#755bb4"
                                                            data-fill-palette-color="primary"></path>
                                                        <path
                                                            d="M67.717 249.633l-3.782 5.529-2.021-1.383 9.037-13.211 2.396 1.64-0.524 7.756c-0.103 1.441-0.209 2.766-0.317 3.975-0.112 1.215-0.199 2.058-0.26 2.531v0l-0.102 0.74c0.737-1.245 1.892-3.017 3.465-5.316v0l3.793-5.545 2.02 1.382-9.036 13.211-2.388-1.634 0.496-7.75c0.088-1.395 0.189-2.702 0.305-3.922 0.112-1.215 0.205-2.086 0.281-2.615v0l0.088-0.774c-0.789 1.381-1.94 3.176-3.451 5.386z"
                                                            fill="#755bb4"
                                                            data-fill-palette-color="primary"></path>
                                                        <path
                                                            d="M82.366 266.073v0l-4.521-2.224 7.065-14.362 4.475 2.201c2.136 1.051 3.561 2.571 4.274 4.561 0.713 1.989 0.566 4.007-0.44 6.052v0c-1.051 2.136-2.556 3.576-4.515 4.319-1.968 0.746-4.081 0.563-6.338-0.547zM88.429 253.541v0l-2.197-1.081-5.234 10.64 2.261 1.112c1.634 0.804 3.129 0.904 4.486 0.301 1.35-0.606 2.422-1.714 3.213-3.324v0c0.726-1.477 0.871-2.932 0.434-4.365-0.444-1.436-1.431-2.531-2.963-3.283z"
                                                            fill="#755bb4"
                                                            data-fill-palette-color="primary"></path>
                                                        <path
                                                            d="M107.771 268.429v0l-0.457 0.717 4.966 1.285-0.043-0.847c-0.12-1.961-0.209-3.583-0.267-4.866-0.058-1.283-0.089-2.082-0.091-2.395v0l-0.006-0.462c-0.356 0.674-1.723 2.864-4.102 6.568zM106.155 270.958l-2.214 3.471-2.508-0.649 9.366-14.109 3.105 0.803 1.281 16.864-2.537-0.656-0.234-4.105z"
                                                            fill="#755bb4"
                                                            data-fill-palette-color="primary"></path>
                                                        <path
                                                            d="M123.478 271.767l-0.811 6.648-2.431-0.296 1.938-15.888 2.882 0.351 3.106 7.126c0.572 1.327 1.089 2.552 1.55 3.675 0.46 1.13 0.772 1.919 0.934 2.367v0l0.251 0.703c0.081-1.444 0.29-3.549 0.627-6.314v0l0.813-6.669 2.431 0.297-1.938 15.888-2.872-0.351-3.129-7.108c-0.564-1.278-1.076-2.486-1.535-3.622-0.46-1.13-0.778-1.947-0.955-2.451v0l-0.278-0.727c-0.065 1.589-0.259 3.712-0.583 6.371z"
                                                            fill="#755bb4"
                                                            data-fill-palette-color="primary"></path>
                                                        <path
                                                            d="M144.053 279.611v0l-5.037 0.109-0.346-16.002 4.986-0.108c2.38-0.051 4.345 0.641 5.894 2.079 1.549 1.437 2.348 3.296 2.398 5.575v0c0.051 2.38-0.621 4.351-2.018 5.913-1.403 1.569-3.362 2.38-5.877 2.434zM143.661 265.695v0l-2.448 0.053 0.256 11.855 2.519-0.055c1.821-0.039 3.194-0.639 4.12-1.799 0.919-1.16 1.36-2.637 1.321-4.431v0c-0.036-1.645-0.578-3.003-1.626-4.073-1.055-1.07-2.436-1.587-4.142-1.55z"
                                                            fill="#755bb4"
                                                            data-fill-palette-color="primary"></path>
                                                        <path
                                                            d="M177.693 273.178l0.057 0.164c-1.122 1.277-2.696 2.145-4.721 2.604v0c-2.441 0.552-4.567 0.277-6.38-0.828-1.818-1.096-3.007-2.881-3.567-5.354v0c-0.541-2.388-0.227-4.499 0.942-6.334 1.168-1.834 2.91-3.014 5.226-3.537v0c1.809-0.41 3.401-0.403 4.776 0.018v0l0.556 2.457c-1.518-0.535-3.096-0.617-4.734-0.246v0c-1.664 0.377-2.889 1.214-3.674 2.513-0.785 1.298-0.98 2.819-0.586 4.561v0c0.407 1.796 1.23 3.096 2.47 3.902 1.247 0.803 2.758 1.004 4.535 0.602v0c0.928-0.21 1.771-0.577 2.531-1.102v0l-0.977-4.312-3.177 0.719-0.467-2.062 5.516-1.249 1.693 7.48z"
                                                            fill="#755bb4"
                                                            data-fill-palette-color="primary"></path>
                                                        <path
                                                            d="M191.64 267.677l0.696 1.921-8.694 3.15-5.453-15.048 8.58-3.109 0.696 1.922-6.278 2.275 1.682 4.641 5.565-2.016 0.696 1.922-5.564 2.016 1.682 4.642z"
                                                            fill="#755bb4"
                                                            data-fill-palette-color="primary"></path>
                                                        <path
                                                            d="M196.874 260.33l2.537 5.756-2.141 1.145-6.457-14.698 2.561-1.369 4.635 4.142c0.804 0.702 1.639 1.457 2.505 2.263 0.858 0.803 1.516 1.434 1.976 1.893v0l0.71 0.664c-0.372-2.241-0.719-4.587-1.042-7.037v0l-0.78-6.203 2.551-1.364 8.848 13.419-2.141 1.145-3.457-5.265-3.47-5.418c0.323 2.106 0.647 4.358 0.972 6.754v0l0.846 6.304-1.695 0.906-4.719-4.234-4.885-4.547c0.328 0.613 1.209 2.527 2.645 5.744z"
                                                            fill="#755bb4"
                                                            data-fill-palette-color="primary"></path>
                                                        <path
                                                            d="M222.681 246.338v0c0.838 1.133 1.096 2.322 0.775 3.567-0.325 1.239-1.123 2.327-2.392 3.266v0c-1.416 1.047-2.789 1.639-4.122 1.777v0l-1.51-2.042c1.561 0.012 3.003-0.471 4.327-1.45v0c0.7-0.517 1.133-1.089 1.298-1.715 0.172-0.63 0.045-1.233-0.38-1.808v0c-0.253-0.342-0.607-0.566-1.064-0.673-0.457-0.107-0.877-0.131-1.262-0.073-0.39 0.062-0.959 0.172-1.706 0.33v0c-0.443 0.093-0.757 0.157-0.94 0.192-0.18 0.041-0.484 0.089-0.912 0.146-0.424 0.062-0.751 0.09-0.982 0.084-0.235-0.011-0.535-0.037-0.9-0.077-0.369-0.046-0.677-0.133-0.923-0.261-0.245-0.138-0.51-0.31-0.798-0.518-0.286-0.216-0.545-0.482-0.777-0.796v0c-0.81-1.096-1.053-2.258-0.729-3.487 0.328-1.224 1.121-2.301 2.379-3.232v0c1.161-0.858 2.298-1.385 3.413-1.579v0l1.437 1.944c-1.244 0.098-2.409 0.548-3.494 1.35v0c-0.7 0.517-1.136 1.079-1.308 1.685-0.169 0.611-0.065 1.172 0.312 1.682 0.377 0.51 0.876 0.77 1.496 0.781 0.62 0.011 1.47-0.105 2.548-0.349v0c0.705-0.169 1.269-0.28 1.692-0.333 0.419-0.058 0.933-0.077 1.543-0.058 0.611 0.01 1.161 0.152 1.65 0.428 0.489 0.276 0.932 0.682 1.329 1.219z"
                                                            fill="#755bb4"
                                                            data-fill-palette-color="primary"></path>
                                                        <path
                                                            d="M225.442 227.973l1.396 1.492-3.065 2.869 9.543 10.192-1.787 1.674-9.543-10.192-3.05 2.855-1.397-1.491z"
                                                            fill="#755bb4"
                                                            data-fill-palette-color="primary"></path>
                                                        <path
                                                            d="M236.562 217.75c1.992-0.051 3.949 0.725 5.871 2.327 1.922 1.603 3.037 3.393 3.345 5.372 0.308 1.979-0.257 3.83-1.695 5.555v0c-1.43 1.715-3.152 2.606-5.167 2.674-2.01 0.062-3.977-0.708-5.898-2.311v0c-1.911-1.594-3.019-3.383-3.323-5.367-0.304-1.984 0.259-3.833 1.688-5.547v0c1.464-1.756 3.191-2.657 5.179-2.703zM232.125 225.629c0.278 1.33 1.125 2.585 2.539 3.764 1.409 1.175 2.806 1.774 4.192 1.797 1.381 0.019 2.538-0.531 3.471-1.65v0c0.963-1.155 1.306-2.393 1.029-3.713-0.273-1.326-1.127-2.587-2.562-3.784v0c-1.425-1.188-2.816-1.795-4.173-1.82-1.363-0.03-2.526 0.533-3.489 1.688v0c-0.95 1.14-1.286 2.379-1.007 3.718z"
                                                            fill="#755bb4"
                                                            data-fill-palette-color="primary"></path>
                                                        <path
                                                            d="M247.292 215.039l5.69 3.534-1.292 2.08-13.596-8.446 1.532-2.466 7.772 0.182c1.444 0.04 2.773 0.087 3.985 0.142 1.218 0.058 2.065 0.108 2.54 0.148v0l0.743 0.069c-1.276-0.681-3.097-1.757-5.463-3.227v0l-5.706-3.545 1.292-2.08 13.596 8.446-1.527 2.458-7.765-0.155c-1.397-0.026-2.708-0.07-3.932-0.132-1.218-0.058-2.093-0.113-2.625-0.165v0l-0.776-0.054c1.414 0.728 3.258 1.798 5.532 3.211z"
                                                            fill="#755bb4"
                                                            data-fill-palette-color="primary"></path>
                                                        <path
                                                            d="M263.014 195.126l1.859 0.849-3.839 8.412-14.561-6.644 3.789-8.302 1.859 0.848-2.772 6.075 4.492 2.049 2.457-5.384 1.859 0.848-2.457 5.385 4.492 2.05z"
                                                            fill="#755bb4"
                                                            data-fill-palette-color="primary"></path>
                                                        <path
                                                            d="M265.479 180.414v0c1.34 0.437 2.24 1.256 2.7 2.456 0.453 1.198 0.435 2.547-0.054 4.048v0c-0.546 1.674-1.322 2.953-2.327 3.838v0l-2.414-0.788c1.278-0.896 2.173-2.126 2.683-3.69v0c0.27-0.827 0.291-1.544 0.063-2.15-0.226-0.613-0.678-1.03-1.358-1.252v0c-0.404-0.132-0.823-0.109-1.257 0.069-0.434 0.178-0.791 0.402-1.071 0.672-0.282 0.277-0.681 0.697-1.198 1.259v0c-0.307 0.333-0.525 0.566-0.655 0.701-0.123 0.137-0.342 0.353-0.658 0.648-0.31 0.296-0.56 0.509-0.751 0.638-0.198 0.127-0.457 0.28-0.778 0.459-0.327 0.177-0.628 0.285-0.903 0.323-0.279 0.03-0.596 0.043-0.95 0.041-0.358-0.011-0.724-0.076-1.095-0.198v0c-1.295-0.423-2.168-1.229-2.617-2.417-0.443-1.187-0.421-2.525 0.064-4.013v0c0.448-1.372 1.069-2.461 1.863-3.266v0l2.299 0.75c-0.957 0.802-1.644 1.844-2.063 3.126v0c-0.27 0.827-0.299 1.538-0.088 2.132 0.217 0.596 0.627 0.992 1.229 1.188 0.603 0.197 1.16 0.119 1.672-0.231 0.512-0.351 1.136-0.938 1.873-1.762v0c0.476-0.547 0.872-0.964 1.186-1.252 0.307-0.29 0.715-0.604 1.222-0.942 0.503-0.347 1.034-0.549 1.593-0.609 0.558-0.059 1.155 0.015 1.79 0.222z"
                                                            fill="#755bb4"
                                                            data-fill-palette-color="primary"></path>
                                                        <path
                                                            d="M10.303 145.642c0-1.823 1.478-3.301 3.301-3.301 1.823 0 3.301 1.478 3.301 3.301 0 1.823-1.478 3.301-3.301 3.301-1.823 0-3.301-1.478-3.301-3.301z"
                                                            fill="#755bb4"
                                                            data-fill-palette-color="primary"></path>
                                                        <path
                                                            d="M265.011 145.642c0-1.823 1.478-3.301 3.301-3.301 1.823 0 3.301 1.478 3.301 3.301 0 1.823-1.478 3.301-3.301 3.301-1.823 0-3.301-1.478-3.301-3.301z"
                                                            fill="#755bb4"
                                                            data-fill-palette-color="primary"></path>
                                                    </g>
                                                </svg>
                                            </g>
                                        </svg>
                                    </g>
                                </svg>
                            </g>
                        </svg>
                    </g>
                    <defs></defs>
                </svg>
                <rect width="279.72" height="279.72" fill="none" stroke="none"
                    visibility="hidden"></rect>
            </g>
        </svg>
    </g>
</svg>